<mxfile host="65bd71144e">
    <diagram id="UN2sgL8hX5gglXzgyNVK" name="Page-1">
        <mxGraphModel dx="3354" dy="835" grid="1" gridSize="10" guides="1" tooltips="1" connect="1" arrows="1" fold="1" page="1" pageScale="1" pageWidth="827" pageHeight="1169" math="0" shadow="0">
            <root>
                <mxCell id="0"/>
                <mxCell id="1" parent="0"/>
                <mxCell id="2" value="&lt;h1&gt;Elemental Dev Test&lt;/h1&gt;" style="text;html=1;strokeColor=default;fillColor=none;align=center;verticalAlign=middle;whiteSpace=wrap;rounded=0;fontStyle=1;fontSize=25;" parent="1" vertex="1">
                    <mxGeometry x="320" y="40" width="1390" height="80" as="geometry"/>
                </mxCell>
                <mxCell id="13" value="" style="edgeStyle=none;html=1;fontSize=15;strokeColor=default;" parent="1" source="3" target="12" edge="1">
                    <mxGeometry relative="1" as="geometry"/>
                </mxCell>
                <mxCell id="3" value="&lt;h1 style=&quot;&quot;&gt;&lt;font style=&quot;font-size: 15px;&quot;&gt;QUESTION 1&lt;/font&gt;&lt;/h1&gt;&lt;h1 style=&quot;&quot;&gt;&lt;ol style=&quot;font-size: 15px;&quot;&gt;&lt;li&gt;&lt;font style=&quot;font-size: 15px; font-weight: normal;&quot;&gt;&amp;nbsp;Create a form with a single textarea that will sort words or phrases alphabetically separated by commas.&lt;/font&gt;&lt;/li&gt;&lt;li&gt;&lt;span style=&quot;font-weight: normal;&quot;&gt;Validate that the field is not empty.&lt;/span&gt;&lt;/li&gt;&lt;li&gt;&lt;span style=&quot;font-weight: normal;&quot;&gt;Clean up the string to remove any extra spaces and unnecessary commas&lt;/span&gt;&lt;/li&gt;&lt;li&gt;&lt;span style=&quot;font-weight: normal;&quot;&gt;The result should be shown below the form.&lt;/span&gt;&lt;/li&gt;&lt;/ol&gt;&lt;/h1&gt;" style="text;html=1;strokeColor=default;fillColor=none;spacing=5;spacingTop=-20;whiteSpace=wrap;overflow=hidden;rounded=1;fontSize=15;fontStyle=1" parent="1" vertex="1">
                    <mxGeometry x="-555" y="160" width="480" height="260" as="geometry"/>
                </mxCell>
                <mxCell id="4" value="&lt;h1 style=&quot;&quot;&gt;&lt;font style=&quot;font-size: 15px;&quot;&gt;QUESTION 2&lt;/font&gt;&lt;/h1&gt;&lt;h1 style=&quot;&quot;&gt;&lt;ol style=&quot;font-size: 15px;&quot;&gt;&lt;li style=&quot;&quot;&gt;&lt;font style=&quot;font-size: 15px; font-weight: normal;&quot;&gt;&amp;nbsp;Using the data stored in the database&lt;/font&gt;&lt;/li&gt;&lt;li style=&quot;&quot;&gt;&lt;font style=&quot;font-size: 15px; font-weight: normal;&quot;&gt;show a list of products with their prices grouped by category.&lt;/font&gt;&lt;/li&gt;&lt;li style=&quot;&quot;&gt;&lt;font style=&quot;font-size: 15px; font-weight: normal;&quot;&gt;The categories should be listed in alphabetical order.&lt;/font&gt;&lt;/li&gt;&lt;li style=&quot;&quot;&gt;&lt;font style=&quot;font-size: 15px; font-weight: normal;&quot;&gt;The products within those categories should also be listed in alphabetical order.&lt;/font&gt;&lt;/li&gt;&lt;li style=&quot;&quot;&gt;&lt;font style=&quot;font-size: 15px; font-weight: normal;&quot;&gt;Products with no category will be categorized as &quot;Uncategorized&quot;.&lt;/font&gt;&lt;/li&gt;&lt;li style=&quot;&quot;&gt;&lt;font style=&quot;font-size: 15px; font-weight: normal;&quot;&gt;If there are no results, then it should just say &quot;There are no results available.&quot;&lt;/font&gt;&lt;/li&gt;&lt;li style=&quot;&quot;&gt;&lt;font style=&quot;font-size: 15px; font-weight: normal;&quot;&gt;Please make sure your code runs as effectively as it can.&lt;/font&gt;&lt;/li&gt;&lt;li style=&quot;&quot;&gt;&lt;span style=&quot;font-weight: normal;&quot;&gt;See test2.html for desired result.&lt;/span&gt;&lt;/li&gt;&lt;/ol&gt;&lt;/h1&gt;" style="text;html=1;strokeColor=default;fillColor=none;spacing=5;spacingTop=-20;whiteSpace=wrap;overflow=hidden;rounded=1;fontSize=15;fontStyle=1" parent="1" vertex="1">
                    <mxGeometry x="520" y="160" width="420" height="400" as="geometry"/>
                </mxCell>
                <mxCell id="6" value="&lt;h1 style=&quot;&quot;&gt;&lt;font style=&quot;font-size: 15px;&quot;&gt;QUESTION 3&lt;/font&gt;&lt;/h1&gt;&lt;h1 style=&quot;&quot;&gt;&lt;ol style=&quot;font-size: 15px;&quot;&gt;&lt;li style=&quot;&quot;&gt;&lt;font style=&quot;font-size: 15px; font-weight: normal;&quot;&gt;For each month that had sales show a list of customers ordered by who spent the most to who spent least.&lt;/font&gt;&lt;/li&gt;&lt;li style=&quot;&quot;&gt;&lt;span style=&quot;font-weight: normal;&quot;&gt;If the totals are the same then sort by customer.&lt;/span&gt;&lt;/li&gt;&lt;li style=&quot;&quot;&gt;&lt;span style=&quot;font-weight: normal; background-color: initial;&quot;&gt;If a customer has multiple products then order those products alphabetical.&lt;/span&gt;&lt;br&gt;&lt;/li&gt;&lt;li style=&quot;&quot;&gt;&lt;font style=&quot;font-size: 15px; font-weight: normal;&quot;&gt;Months with no sales should not show up.&lt;/font&gt;&lt;/li&gt;&lt;li style=&quot;&quot;&gt;&lt;font style=&quot;font-size: 15px; font-weight: normal;&quot;&gt;Show the name of the customer, what products they bought and the total they spent.&lt;/font&gt;&lt;/li&gt;&lt;li style=&quot;&quot;&gt;&lt;font style=&quot;font-size: 15px; font-weight: normal;&quot;&gt;Only show orders with the &quot;Payment received&quot; and &quot;Dispatched&quot; status.&lt;/font&gt;&lt;/li&gt;&lt;li style=&quot;&quot;&gt;&lt;font style=&quot;font-size: 15px; font-weight: normal;&quot;&gt;If there are no results, then it should just say &quot;There are no results available.&quot;&lt;/font&gt;&lt;/li&gt;&lt;li style=&quot;&quot;&gt;&lt;span style=&quot;font-weight: normal;&quot;&gt;&lt;span style=&quot;background-color: initial;&quot;&gt;Please make sure your code runs as effectively as it can.&lt;/span&gt;&lt;br&gt;&lt;/span&gt;&lt;/li&gt;&lt;li style=&quot;&quot;&gt;&lt;span style=&quot;background-color: initial; font-weight: normal;&quot;&gt;See test3.html for desired result.&lt;/span&gt;&lt;br&gt;&lt;/li&gt;&lt;/ol&gt;&lt;/h1&gt;" style="text;html=1;strokeColor=default;fillColor=none;spacing=5;spacingTop=-20;whiteSpace=wrap;overflow=hidden;rounded=1;fontSize=15;fontStyle=1" parent="1" vertex="1">
                    <mxGeometry x="1020" y="160" width="420" height="450" as="geometry"/>
                </mxCell>
                <mxCell id="95" style="edgeStyle=none;html=1;exitX=0.5;exitY=1;exitDx=0;exitDy=0;entryX=0.5;entryY=0;entryDx=0;entryDy=0;" edge="1" parent="1" source="8" target="94">
                    <mxGeometry relative="1" as="geometry"/>
                </mxCell>
                <mxCell id="8" value="&lt;h1 style=&quot;&quot;&gt;&lt;font style=&quot;font-size: 15px;&quot;&gt;QUESTION 4&lt;/font&gt;&lt;/h1&gt;&lt;h1 style=&quot;&quot;&gt;&lt;ol style=&quot;font-size: 15px;&quot;&gt;&lt;li style=&quot;&quot;&gt;&lt;font style=&quot;font-size: 15px; font-weight: normal;&quot;&gt;With javascript/jquery build a table listing using the data from the customers array (stored in data.js).&lt;/font&gt;&lt;/li&gt;&lt;li style=&quot;&quot;&gt;&lt;span style=&quot;font-weight: normal;&quot;&gt;&lt;span style=&quot;background-color: initial;&quot;&gt;The listing should show the customer's name and age.&lt;/span&gt;&lt;br&gt;&lt;/span&gt;&lt;/li&gt;&lt;li style=&quot;&quot;&gt;&lt;font style=&quot;font-size: 15px; font-weight: normal;&quot;&gt;Above the listing add a textbox.&lt;/font&gt;&lt;/li&gt;&lt;li style=&quot;&quot;&gt;&lt;font style=&quot;font-size: 15px; font-weight: normal;&quot;&gt;Entering a value will search all names which contains the entered string.&lt;/font&gt;&lt;/li&gt;&lt;li style=&quot;&quot;&gt;&lt;font style=&quot;font-size: 15px; font-weight: normal;&quot;&gt;When you search for a number range (20-30) it will filter the results based off the customer's age.&lt;/font&gt;&lt;/li&gt;&lt;li style=&quot;&quot;&gt;&lt;font style=&quot;font-size: 15px; font-weight: normal;&quot;&gt;E.g When you search for 20-30 it must list everyone with ages in that range.&lt;/font&gt;&lt;/li&gt;&lt;li style=&quot;&quot;&gt;&lt;font style=&quot;font-size: 15px; font-weight: normal;&quot;&gt;Please make sure your code runs as effectively as it can.&lt;/font&gt;&lt;/li&gt;&lt;/ol&gt;&lt;/h1&gt;" style="text;html=1;strokeColor=default;fillColor=none;spacing=5;spacingTop=-20;whiteSpace=wrap;overflow=hidden;rounded=1;fontSize=15;fontStyle=0" parent="1" vertex="1">
                    <mxGeometry x="1520" y="160" width="420" height="450" as="geometry"/>
                </mxCell>
                <mxCell id="75" style="edgeStyle=none;html=1;exitX=0.5;exitY=1;exitDx=0;exitDy=0;entryX=0.5;entryY=0;entryDx=0;entryDy=0;" parent="1" source="12" target="17" edge="1">
                    <mxGeometry relative="1" as="geometry"/>
                </mxCell>
                <mxCell id="12" value="&lt;h1 style=&quot;&quot;&gt;&lt;font style=&quot;&quot;&gt;&lt;span style=&quot;font-size: 15px;&quot;&gt;QUESTION 1 - Solution Requirements&lt;br&gt;&lt;/span&gt;&lt;/font&gt;&lt;font style=&quot;font-size: 15px;&quot;&gt;Javascript front end functionality:&lt;/font&gt;&lt;/h1&gt;&lt;h1 style=&quot;&quot;&gt;&lt;ol style=&quot;font-size: 15px;&quot;&gt;&lt;li&gt;&lt;font style=&quot;font-size: 15px; font-weight: normal;&quot;&gt;Capture form input upon form submission&lt;/font&gt;&lt;/li&gt;&lt;li style=&quot;font-size: 15px;&quot;&gt;&lt;span style=&quot;font-weight: normal;&quot;&gt;Validate input : empty / empty fields.&lt;br&gt;&lt;/span&gt;&lt;/li&gt;&lt;li style=&quot;font-size: 15px;&quot;&gt;&lt;span style=&quot;font-weight: normal;&quot;&gt;Clean - Parse into an array to clean &amp;amp; filter, white space, commas.&lt;/span&gt;&lt;/li&gt;&lt;li style=&quot;font-size: 15px;&quot;&gt;&lt;span style=&quot;font-weight: normal;&quot;&gt;Sanitize - CS attacks - invalidate javascript calls and urls.&lt;/span&gt;&lt;/li&gt;&lt;li style=&quot;font-size: 15px;&quot;&gt;&lt;span style=&quot;font-weight: normal;&quot;&gt;Provide validation / sanitization errors / notiofications if any.&lt;br&gt;&lt;/span&gt;&lt;/li&gt;&lt;li style=&quot;font-size: 15px;&quot;&gt;&lt;span style=&quot;font-weight: normal;&quot;&gt;Present the accepted output result.&lt;/span&gt;&lt;/li&gt;&lt;li style=&quot;font-size: 15px;&quot;&gt;&lt;span style=&quot;font-weight: normal;&quot;&gt;Show that the next step would be to then actually submit the form using AJAX or page refresh.&lt;/span&gt;&lt;/li&gt;&lt;/ol&gt;&lt;/h1&gt;" style="text;html=1;strokeColor=default;fillColor=none;spacing=5;spacingTop=-20;whiteSpace=wrap;overflow=hidden;rounded=1;fontSize=15;fontStyle=1" parent="1" vertex="1">
                    <mxGeometry x="-555" y="510" width="480" height="370" as="geometry"/>
                </mxCell>
                <mxCell id="17" value="Pool" style="swimlane;childLayout=stackLayout;resizeParent=1;resizeParentMax=0;startSize=20;html=1;align=left;" parent="1" vertex="1">
                    <mxGeometry x="-1100" y="990" width="1570" height="1280" as="geometry"/>
                </mxCell>
                <mxCell id="18" value="User Interface Action" style="swimlane;startSize=20;html=1;" parent="17" vertex="1">
                    <mxGeometry y="20" width="460" height="1260" as="geometry"/>
                </mxCell>
                <mxCell id="14" value="START" style="ellipse;whiteSpace=wrap;html=1;aspect=fixed;fontSize=15;fillColor=#008a00;fontColor=#ffffff;strokeColor=default;fontStyle=1" parent="18" vertex="1">
                    <mxGeometry x="180" y="40" width="50" height="50" as="geometry"/>
                </mxCell>
                <mxCell id="15" value="Page load&lt;br&gt;&lt;ul&gt;&lt;li&gt;Page loads with the HTML form.&lt;/li&gt;&lt;li&gt;Page contains script tag to initiate app.&lt;/li&gt;&lt;/ul&gt;" style="rounded=1;whiteSpace=wrap;html=1;fontSize=15;strokeColor=default;align=left;" parent="18" vertex="1">
                    <mxGeometry x="40" y="159" width="330" height="120" as="geometry"/>
                </mxCell>
                <mxCell id="16" style="edgeStyle=none;html=1;exitX=0.5;exitY=1;exitDx=0;exitDy=0;entryX=0.5;entryY=0;entryDx=0;entryDy=0;fontSize=15;strokeColor=default;" parent="18" source="14" target="15" edge="1">
                    <mxGeometry relative="1" as="geometry"/>
                </mxCell>
                <mxCell id="31" value="HTML Form&lt;br&gt;&lt;ul&gt;&lt;li&gt;Submit button enabled.&lt;/li&gt;&lt;li&gt;User fills in the form&lt;/li&gt;&lt;li&gt;User submits form.&lt;/li&gt;&lt;/ul&gt;" style="rounded=1;whiteSpace=wrap;html=1;fontSize=15;strokeColor=default;align=left;" parent="18" vertex="1">
                    <mxGeometry x="40" y="630" width="330" height="144" as="geometry"/>
                </mxCell>
                <mxCell id="46" value="" style="edgeStyle=none;html=1;" parent="18" source="42" target="45" edge="1">
                    <mxGeometry relative="1" as="geometry"/>
                </mxCell>
                <mxCell id="42" value="HTML Form&lt;br&gt;&lt;ul&gt;&lt;li&gt;Submit button stays disabled.&lt;/li&gt;&lt;li&gt;Error message is displayed.&lt;/li&gt;&lt;li&gt;User contacts support.&lt;/li&gt;&lt;/ul&gt;" style="rounded=1;whiteSpace=wrap;html=1;fontSize=15;strokeColor=default;align=left;" parent="18" vertex="1">
                    <mxGeometry x="40" y="340" width="330" height="140" as="geometry"/>
                </mxCell>
                <mxCell id="45" value="FINISH" style="ellipse;whiteSpace=wrap;html=1;fontSize=15;align=center;rounded=1;fillColor=#a20025;fontColor=#ffffff;strokeColor=#6F0000;fontStyle=1" parent="18" vertex="1">
                    <mxGeometry x="175" y="530" width="65" height="60" as="geometry"/>
                </mxCell>
                <mxCell id="19" value="Route: Request /&amp;nbsp;Response" style="swimlane;startSize=20;html=1;" parent="17" vertex="1">
                    <mxGeometry x="460" y="20" width="390" height="1260" as="geometry"/>
                </mxCell>
                <mxCell id="27" value="&lt;span style=&quot;text-align: center;&quot;&gt;&lt;font style=&quot;font-size: 15px;&quot;&gt;Request / Route&lt;/font&gt;&lt;/span&gt;: Init&lt;br&gt;&lt;ul&gt;&lt;li&gt;Calls the Init object to initialize functionality&lt;/li&gt;&lt;li&gt;Parameter: &lt;br&gt;String value - page ID / form ID.&lt;/li&gt;&lt;/ul&gt;" style="rounded=1;whiteSpace=wrap;html=1;fontSize=15;strokeColor=default;align=left;" parent="19" vertex="1">
                    <mxGeometry x="30" y="153" width="330" height="132" as="geometry"/>
                </mxCell>
                <mxCell id="35" value="&lt;div style=&quot;text-align: left;&quot;&gt;&lt;span style=&quot;background-color: initial;&quot;&gt;Response:&amp;nbsp;&lt;/span&gt;Response&lt;span style=&quot;background-color: initial;&quot;&gt;&amp;nbsp;object&lt;/span&gt;&lt;/div&gt;&lt;div style=&quot;text-align: left;&quot;&gt;&lt;ul&gt;&lt;li&gt;&lt;span style=&quot;background-color: initial;&quot;&gt;JS call:&amp;nbsp;&lt;/span&gt;&lt;span style=&quot;text-align: center;&quot;&gt;Enables submit button in form.&lt;/span&gt;&lt;/li&gt;&lt;/ul&gt;&lt;/div&gt;" style="whiteSpace=wrap;html=1;fontSize=15;rounded=1;" parent="19" vertex="1">
                    <mxGeometry x="40" y="646" width="280" height="112" as="geometry"/>
                </mxCell>
                <mxCell id="37" value="Response: Response&lt;span style=&quot;background-color: initial;&quot;&gt;&amp;nbsp;object&lt;/span&gt;&lt;br&gt;&lt;div style=&quot;&quot;&gt;&lt;ul&gt;&lt;li style=&quot;&quot;&gt;&lt;span style=&quot;background-color: initial;&quot;&gt;message: Returns error message&lt;/span&gt;&lt;/li&gt;&lt;/ul&gt;&lt;/div&gt;" style="whiteSpace=wrap;html=1;fontSize=15;rounded=1;align=left;" parent="19" vertex="1">
                    <mxGeometry x="40" y="365" width="280" height="90" as="geometry"/>
                </mxCell>
                <mxCell id="57" value="&lt;span style=&quot;text-align: center;&quot;&gt;Request / Route:&amp;nbsp;&lt;/span&gt;Router::switch&lt;br&gt;&lt;ul&gt;&lt;li&gt;Calls the corresponding controller from registry.&lt;/li&gt;&lt;li&gt;ListParser&amp;nbsp;&lt;/li&gt;&lt;/ul&gt;" style="whiteSpace=wrap;html=1;fontSize=15;rounded=1;align=left;" parent="19" vertex="1">
                    <mxGeometry x="40" y="793" width="280" height="150" as="geometry"/>
                </mxCell>
                <mxCell id="20" value="Controller" style="swimlane;startSize=20;html=1;" parent="17" vertex="1">
                    <mxGeometry x="850" y="20" width="720" height="1260" as="geometry"/>
                </mxCell>
                <mxCell id="76" style="edgeStyle=none;html=1;exitX=0.5;exitY=1;exitDx=0;exitDy=0;entryX=0.5;entryY=0;entryDx=0;entryDy=0;fontSize=12;" parent="20" source="29" target="33" edge="1">
                    <mxGeometry relative="1" as="geometry"/>
                </mxCell>
                <mxCell id="29" value="Controller: Form Event Listener&lt;br&gt;&lt;br&gt;&lt;ul&gt;&lt;li&gt;Attaches a event listener for all form to be loaded withiing the document.&lt;br&gt;&lt;/li&gt;&lt;li&gt;Only one event listener is attached for forms to reduce number of event handlers in DOM.&lt;/li&gt;&lt;li&gt;Event listener will have a router object which will check the forms ID &amp;amp; determine what Controller to call in the Router object.&lt;/li&gt;&lt;/ul&gt;" style="rounded=1;whiteSpace=wrap;html=1;fontSize=15;strokeColor=default;align=left;" parent="20" vertex="1">
                    <mxGeometry x="85" y="350" width="550" height="211" as="geometry"/>
                </mxCell>
                <mxCell id="33" value="App initialize" style="rhombus;whiteSpace=wrap;html=1;fontSize=15;align=center;rounded=1;" parent="20" vertex="1">
                    <mxGeometry x="300" y="620" width="120" height="110" as="geometry"/>
                </mxCell>
                <mxCell id="61" value="Controller:: ListParser&lt;br&gt;&lt;ul&gt;&lt;li&gt;Receives form object as parameter&lt;/li&gt;&lt;li&gt;Wrapper controller to parse a comma separated list of values.&lt;/li&gt;&lt;/ul&gt;" style="whiteSpace=wrap;html=1;fontSize=15;rounded=1;align=left;" parent="20" vertex="1">
                    <mxGeometry x="100" y="800" width="280" height="136" as="geometry"/>
                </mxCell>
                <mxCell id="83" style="edgeStyle=none;html=1;exitX=0.5;exitY=1;exitDx=0;exitDy=0;entryX=0.5;entryY=0;entryDx=0;entryDy=0;fontSize=12;" parent="20" source="77" target="29" edge="1">
                    <mxGeometry relative="1" as="geometry"/>
                </mxCell>
                <mxCell id="77" value="Controller: Init&lt;br&gt;&lt;ul&gt;&lt;li&gt;Initiates the necessary leg of the JS app.&lt;/li&gt;&lt;li&gt;Parameter required to provide scalability in design so that this call handles various setups.&lt;br&gt;&lt;/li&gt;&lt;li&gt;Parameter: page ID / form ID - Determines type of initiation.&lt;/li&gt;&lt;/ul&gt;" style="rounded=1;whiteSpace=wrap;html=1;fontSize=15;strokeColor=default;align=left;" parent="20" vertex="1">
                    <mxGeometry x="85" y="80" width="550" height="190" as="geometry"/>
                </mxCell>
                <mxCell id="28" value="" style="edgeStyle=none;html=1;" parent="17" source="15" target="27" edge="1">
                    <mxGeometry relative="1" as="geometry"/>
                </mxCell>
                <mxCell id="36" value="SUCCESS" style="edgeStyle=none;html=1;entryX=1;entryY=0.5;entryDx=0;entryDy=0;exitX=0;exitY=1;exitDx=0;exitDy=0;" parent="17" source="33" target="35" edge="1">
                    <mxGeometry relative="1" as="geometry">
                        <mxPoint x="970" y="570" as="sourcePoint"/>
                    </mxGeometry>
                </mxCell>
                <mxCell id="38" value="ERROR" style="edgeStyle=none;html=1;exitX=0;exitY=0;exitDx=0;exitDy=0;entryX=1;entryY=0.5;entryDx=0;entryDy=0;" parent="17" source="33" target="37" edge="1">
                    <mxGeometry x="-0.373" y="2" relative="1" as="geometry">
                        <Array as="points">
                            <mxPoint x="830" y="668"/>
                            <mxPoint x="830" y="430"/>
                        </Array>
                        <mxPoint as="offset"/>
                    </mxGeometry>
                </mxCell>
                <mxCell id="55" value="ERROR" style="edgeStyle=none;html=1;exitX=0;exitY=0.5;exitDx=0;exitDy=0;entryX=1;entryY=0.5;entryDx=0;entryDy=0;" parent="17" source="37" target="42" edge="1">
                    <mxGeometry relative="1" as="geometry">
                        <mxPoint x="640" y="557.5" as="sourcePoint"/>
                        <mxPoint x="390" y="540" as="targetPoint"/>
                    </mxGeometry>
                </mxCell>
                <mxCell id="56" value="SUCCESS" style="edgeStyle=none;html=1;entryX=1;entryY=0.5;entryDx=0;entryDy=0;exitX=0;exitY=0.5;exitDx=0;exitDy=0;" parent="17" source="35" target="31" edge="1">
                    <mxGeometry relative="1" as="geometry">
                        <mxPoint x="650" y="482.5" as="sourcePoint"/>
                        <mxPoint x="400" y="640" as="targetPoint"/>
                    </mxGeometry>
                </mxCell>
                <mxCell id="58" style="edgeStyle=none;html=1;exitX=0.5;exitY=1;exitDx=0;exitDy=0;entryX=0;entryY=0.5;entryDx=0;entryDy=0;" parent="17" source="31" target="57" edge="1">
                    <mxGeometry relative="1" as="geometry">
                        <Array as="points">
                            <mxPoint x="205" y="888"/>
                        </Array>
                    </mxGeometry>
                </mxCell>
                <mxCell id="62" style="edgeStyle=none;html=1;exitX=1;exitY=0.5;exitDx=0;exitDy=0;entryX=0;entryY=0.5;entryDx=0;entryDy=0;" parent="17" source="57" target="61" edge="1">
                    <mxGeometry relative="1" as="geometry"/>
                </mxCell>
                <mxCell id="84" style="edgeStyle=none;html=1;exitX=1;exitY=0.5;exitDx=0;exitDy=0;entryX=0;entryY=0.5;entryDx=0;entryDy=0;fontSize=12;" parent="17" source="27" target="77" edge="1">
                    <mxGeometry relative="1" as="geometry">
                        <Array as="points">
                            <mxPoint x="870" y="240"/>
                            <mxPoint x="870" y="196"/>
                        </Array>
                    </mxGeometry>
                </mxCell>
                <mxCell id="73" value="&lt;p style=&quot;margin: 4px 0px 0px; text-align: center; font-size: 15px;&quot;&gt;&lt;b style=&quot;font-size: 15px;&quot;&gt;JS Object: Init&lt;/b&gt;&lt;/p&gt;&lt;hr style=&quot;font-size: 15px;&quot;&gt;&lt;p style=&quot;margin: 0px 0px 0px 4px; font-size: 15px;&quot;&gt;+ field: Type&lt;/p&gt;&lt;p style=&quot;margin: 0px 0px 0px 4px; font-size: 15px;&quot;&gt;+ appType: String (form_event_listener)&lt;br style=&quot;font-size: 15px;&quot;&gt;&lt;/p&gt;&lt;p style=&quot;margin: 0px 0px 0px 4px; font-size: 15px;&quot;&gt;+ field: Type&lt;br style=&quot;font-size: 15px;&quot;&gt;&lt;/p&gt;&lt;hr style=&quot;font-size: 15px;&quot;&gt;&lt;p style=&quot;margin: 0px 0px 0px 4px; font-size: 15px;&quot;&gt;+ method(): Type&lt;/p&gt;&lt;p style=&quot;margin: 0px 0px 0px 4px; font-size: 15px;&quot;&gt;+ initialize(appType): Result&lt;br style=&quot;font-size: 15px;&quot;&gt;&lt;/p&gt;&lt;p style=&quot;margin: 0px 0px 0px 4px; font-size: 15px;&quot;&gt;+ register(): Result&lt;/p&gt;&lt;p style=&quot;margin: 0px 0px 0px 4px; font-size: 15px;&quot;&gt;&lt;br style=&quot;font-size: 15px;&quot;&gt;&lt;/p&gt;&lt;p style=&quot;margin: 0px 0px 0px 4px; font-size: 15px;&quot;&gt;Description:&lt;/p&gt;&lt;p style=&quot;margin: 0px 0px 0px 4px; font-size: 15px;&quot;&gt;Each page requiring JS functionalitry will call this JS file either by importing it the old way using a constant object with traditional old imports.&lt;br style=&quot;font-size: 15px;&quot;&gt;Receives the param which will be the page ID.&lt;br style=&quot;font-size: 15px;&quot;&gt;This will determine which controller to load by implementying the Router object to get its main controller which will loads the required grouped page's functionality. If a page has form functionality or dynamic link building requirements for complex menus.&lt;/p&gt;" style="verticalAlign=top;align=left;overflow=fill;fontSize=15;fontFamily=Helvetica;html=1;whiteSpace=wrap;" parent="1" vertex="1">
                    <mxGeometry x="-570" y="2318" width="245" height="442" as="geometry"/>
                </mxCell>
                <mxCell id="74" value="&lt;p style=&quot;margin: 4px 0px 0px; text-align: center; font-size: 15px;&quot;&gt;&lt;b style=&quot;font-size: 15px;&quot;&gt;JS Object: Response&lt;/b&gt;&lt;/p&gt;&lt;hr style=&quot;font-size: 15px;&quot;&gt;&lt;p style=&quot;margin: 0px 0px 0px 4px; font-size: 15px;&quot;&gt;+ field: Type&lt;/p&gt;&lt;p style=&quot;margin: 0px 0px 0px 4px; font-size: 15px;&quot;&gt;+ message: String&lt;br style=&quot;font-size: 15px;&quot;&gt;&lt;/p&gt;&lt;p style=&quot;margin: 0px 0px 0px 4px; font-size: 15px;&quot;&gt;+ jsCall: String&lt;br style=&quot;font-size: 15px;&quot;&gt;&lt;/p&gt;&lt;hr style=&quot;font-size: 15px;&quot;&gt;&lt;p style=&quot;margin: 0px 0px 0px 4px; font-size: 15px;&quot;&gt;+ method(): Type&lt;/p&gt;&lt;p style=&quot;margin: 0px 0px 0px 4px; font-size: 15px;&quot;&gt;&lt;br style=&quot;font-size: 15px;&quot;&gt;&lt;/p&gt;&lt;p style=&quot;margin: 0px 0px 0px 4px; font-size: 15px;&quot;&gt;Description:&lt;/p&gt;&lt;p style=&quot;margin: 0px 0px 0px 4px; font-size: 15px;&quot;&gt;Mixed value passed back to other calling functions.&lt;/p&gt;&lt;p style=&quot;margin: 0px 0px 0px 4px; font-size: 15px;&quot;&gt;Typifies also a GET / POST requerst from server.&lt;br style=&quot;font-size: 15px;&quot;&gt;&lt;/p&gt;" style="verticalAlign=top;align=left;overflow=fill;fontSize=15;fontFamily=Helvetica;html=1;whiteSpace=wrap;" parent="1" vertex="1">
                    <mxGeometry x="-860" y="2318" width="250" height="442" as="geometry"/>
                </mxCell>
                <mxCell id="85" value="&lt;p style=&quot;margin: 4px 0px 0px; text-align: center; font-size: 15px;&quot;&gt;&lt;b style=&quot;font-size: 15px;&quot;&gt;Q1 - JS Object: FormEventListener&lt;/b&gt;&lt;/p&gt;&lt;hr style=&quot;font-size: 15px;&quot;&gt;&lt;p style=&quot;margin: 0px 0px 0px 4px; font-size: 15px;&quot;&gt;+ field: Type&lt;/p&gt;&lt;hr style=&quot;font-size: 15px;&quot;&gt;&lt;p style=&quot;margin: 0px 0px 0px 4px; font-size: 15px;&quot;&gt;+ method(): Type&lt;/p&gt;&lt;p style=&quot;margin: 0px 0px 0px 4px; font-size: 15px;&quot;&gt;+ formEventListener(): Bool&lt;br style=&quot;font-size: 15px;&quot;&gt;&lt;/p&gt;&lt;p style=&quot;margin: 0px 0px 0px 4px; font-size: 15px;&quot;&gt;&lt;br style=&quot;font-size: 15px;&quot;&gt;&lt;/p&gt;&lt;p style=&quot;margin: 0px 0px 0px 4px; font-size: 15px;&quot;&gt;Description:&lt;/p&gt;&lt;p style=&quot;margin: 0px 0px 0px 4px; font-size: 15px;&quot;&gt;Loads a DOM event listener for &quot;submit&quot; events. Inclusive of other pages navigated to and dynamic AJAX form loading.&lt;/p&gt;&lt;p style=&quot;margin: 0px 0px 0px 4px; font-size: 15px;&quot;&gt;All events relating to submit and filtered into event.targets being FORM nodeName.&lt;/p&gt;&lt;p style=&quot;margin: 0px 0px 0px 4px; font-size: 15px;&quot;&gt;Mainly related to capturing form submissions.&lt;/p&gt;&lt;p style=&quot;margin: 0px 0px 0px 4px; font-size: 15px;&quot;&gt;Prevents event default form submission.&lt;/p&gt;&lt;p style=&quot;margin: 0px 0px 0px 4px; font-size: 15px;&quot;&gt;When the event is fired this listener will receive the form ID which will be passed to the Router object to determine its Controller and initiate all form related functionality.&lt;/p&gt;" style="verticalAlign=top;align=left;overflow=fill;fontSize=15;fontFamily=Helvetica;html=1;whiteSpace=wrap;" vertex="1" parent="1">
                    <mxGeometry x="-300" y="2318" width="245" height="442" as="geometry"/>
                </mxCell>
                <mxCell id="86" value="&lt;p style=&quot;margin: 4px 0px 0px; text-align: center; font-size: 15px;&quot;&gt;&lt;b style=&quot;font-size: 15px;&quot;&gt;Q4 - JS Object Controller: Search&lt;/b&gt;&lt;/p&gt;&lt;hr style=&quot;font-size: 15px;&quot;&gt;&lt;p style=&quot;margin: 0px 0px 0px 4px; font-size: 15px;&quot;&gt;+ field: Type&lt;br style=&quot;font-size: 15px;&quot;&gt;&lt;/p&gt;&lt;p style=&quot;margin: 0px 0px 0px 4px; font-size: 15px;&quot;&gt;+ searchValue: String / Int&lt;br style=&quot;font-size: 15px;&quot;&gt;&lt;/p&gt;&lt;p style=&quot;margin: 0px 0px 0px 4px; font-size: 15px;&quot;&gt;+ searchKeyValPair: Array / Object - iterable&lt;br style=&quot;font-size: 15px;&quot;&gt;&lt;/p&gt;&lt;hr style=&quot;font-size: 15px;&quot;&gt;&lt;p style=&quot;margin: 0px 0px 0px 4px; font-size: 15px;&quot;&gt;+ method(): Type&lt;br style=&quot;font-size: 15px;&quot;&gt;&lt;/p&gt;&lt;p style=&quot;margin: 0px 0px 0px 4px; font-size: 15px;&quot;&gt;+ searchKeyValPair(): Iterable&lt;br style=&quot;font-size: 15px;&quot;&gt;&lt;/p&gt;&lt;p style=&quot;margin: 0px 0px 0px 4px; font-size: 15px;&quot;&gt;+ loadKeyValPair(): Iterable&lt;br style=&quot;font-size: 15px;&quot;&gt;&lt;/p&gt;&lt;p style=&quot;margin: 0px 0px 0px 4px; font-size: 15px;&quot;&gt;&lt;br style=&quot;font-size: 15px;&quot;&gt;&lt;/p&gt;&lt;p style=&quot;margin: 0px 0px 0px 4px; font-size: 15px;&quot;&gt;Description:&lt;/p&gt;&lt;p style=&quot;margin: 0px 0px 0px 4px; font-size: 15px;&quot;&gt;JS object will be main controller for the search.&lt;/p&gt;&lt;p style=&quot;margin: 0px 0px 0px 4px; font-size: 15px;&quot;&gt;Parameters will be the data store object and the form ID.&amp;nbsp;&lt;/p&gt;&lt;p style=&quot;margin: 0px 0px 0px 4px; font-size: 15px;&quot;&gt;Allows for scalabilty across different search pages.&lt;/p&gt;" style="verticalAlign=top;align=left;overflow=fill;fontSize=15;fontFamily=Helvetica;html=1;whiteSpace=wrap;" vertex="1" parent="1">
                    <mxGeometry x="-30" y="2318" width="245" height="442" as="geometry"/>
                </mxCell>
                <mxCell id="87" value="&lt;p style=&quot;margin: 4px 0px 0px; text-align: center; font-size: 15px;&quot;&gt;&lt;b style=&quot;font-size: 15px;&quot;&gt;JS Object: Validation&lt;/b&gt;&lt;/p&gt;&lt;hr style=&quot;font-size: 15px;&quot;&gt;&lt;p style=&quot;margin: 0px 0px 0px 4px; font-size: 15px;&quot;&gt;+ field: Type&lt;/p&gt;+ string: String&lt;hr style=&quot;font-size: 15px;&quot;&gt;&lt;p style=&quot;margin: 0px 0px 0px 4px; font-size: 15px;&quot;&gt;+ method(): Type&lt;br style=&quot;font-size: 15px;&quot;&gt;&lt;/p&gt;&lt;p style=&quot;margin: 0px 0px 0px 4px; font-size: 15px;&quot;&gt;&lt;br style=&quot;font-size: 15px;&quot;&gt;&lt;/p&gt;&lt;p style=&quot;margin: 0px 0px 0px 4px; font-size: 15px;&quot;&gt;Description:&lt;/p&gt;&lt;p style=&quot;margin: 0px 0px 0px 4px; font-size: 15px;&quot;&gt;Param will be mixed value type.&lt;br style=&quot;font-size: 15px;&quot;&gt;This will be parsed to determine if its a form or string or array etc.&lt;/p&gt;&lt;p style=&quot;margin: 0px 0px 0px 4px; font-size: 15px;&quot;&gt;Validates user input.&lt;br style=&quot;font-size: 15px;&quot;&gt;Validation rules will be for null values, empty values, required value types and space trimming as well as any necessary formatting.&amp;nbsp;&lt;br style=&quot;font-size: 15px;&quot;&gt;Will have each rule as a method and then be able to build validation rule requirements as we scale.&lt;/p&gt;&lt;p style=&quot;margin: 0px 0px 0px 4px; font-size: 15px;&quot;&gt;Will return validation errors to callng controller.&lt;/p&gt;" style="verticalAlign=top;align=left;overflow=fill;fontSize=15;fontFamily=Helvetica;html=1;whiteSpace=wrap;" vertex="1" parent="1">
                    <mxGeometry x="240" y="2318" width="245" height="442" as="geometry"/>
                </mxCell>
                <mxCell id="88" value="&lt;p style=&quot;margin: 4px 0px 0px; text-align: center; font-size: 15px;&quot;&gt;&lt;b style=&quot;font-size: 15px;&quot;&gt;JS Object: Sanitation&lt;/b&gt;&lt;/p&gt;&lt;hr style=&quot;font-size: 15px;&quot;&gt;&lt;p style=&quot;margin: 0px 0px 0px 4px; font-size: 15px;&quot;&gt;+ field: Type&lt;/p&gt;+ string: String&lt;hr style=&quot;font-size: 15px;&quot;&gt;&lt;p style=&quot;margin: 0px 0px 0px 4px; font-size: 15px;&quot;&gt;+ method(): Type&lt;br style=&quot;font-size: 15px;&quot;&gt;&lt;/p&gt;&lt;p style=&quot;margin: 0px 0px 0px 4px; font-size: 15px;&quot;&gt;&lt;br style=&quot;font-size: 15px;&quot;&gt;&lt;/p&gt;&lt;p style=&quot;margin: 0px 0px 0px 4px; font-size: 15px;&quot;&gt;Description:&lt;/p&gt;&lt;p style=&quot;margin: 0px 0px 0px 4px; font-size: 15px;&quot;&gt;Params will be a string value.&lt;/p&gt;&lt;p style=&quot;margin: 0px 0px 0px 4px; font-size: 15px;&quot;&gt;Will apply only basic sanitizing for current needs which would be to prevent script calling, loading or linking.&lt;/p&gt;&lt;p style=&quot;margin: 0px 0px 0px 4px; font-size: 15px;&quot;&gt;Returns errors to calling controller.&lt;/p&gt;" style="verticalAlign=top;align=left;overflow=fill;fontSize=15;fontFamily=Helvetica;html=1;whiteSpace=wrap;" vertex="1" parent="1">
                    <mxGeometry x="240" y="2820" width="245" height="442" as="geometry"/>
                </mxCell>
                <mxCell id="89" value="&lt;p style=&quot;margin: 4px 0px 0px; text-align: center; font-size: 15px;&quot;&gt;&lt;b style=&quot;font-size: 15px;&quot;&gt;JS Object: Request&lt;/b&gt;&lt;/p&gt;&lt;hr style=&quot;font-size: 15px;&quot;&gt;&lt;p style=&quot;margin: 0px 0px 0px 4px; font-size: 15px;&quot;&gt;+ field: Type&lt;/p&gt;+ requesatGet: Array&lt;br style=&quot;font-size: 15px;&quot;&gt;+ requesatPOST: Array&lt;br style=&quot;font-size: 15px;&quot;&gt;&lt;hr style=&quot;font-size: 15px;&quot;&gt;&lt;p style=&quot;margin: 0px 0px 0px 4px; font-size: 15px;&quot;&gt;+ method(): Type&lt;/p&gt;&lt;p style=&quot;margin: 0px 0px 0px 4px; font-size: 15px;&quot;&gt;&lt;br style=&quot;font-size: 15px;&quot;&gt;&lt;/p&gt;&lt;p style=&quot;margin: 0px 0px 0px 4px; font-size: 15px;&quot;&gt;Description:&lt;/p&gt;&lt;p style=&quot;margin: 0px 0px 0px 4px; font-size: 15px;&quot;&gt;Mixed value passed to called functions.&lt;/p&gt;&lt;p style=&quot;margin: 0px 0px 0px 4px; font-size: 15px;&quot;&gt;Typifies also a GET / POST requerst to server.&lt;/p&gt;" style="verticalAlign=top;align=left;overflow=fill;fontSize=15;fontFamily=Helvetica;html=1;whiteSpace=wrap;" vertex="1" parent="1">
                    <mxGeometry x="-860" y="2820" width="250" height="450" as="geometry"/>
                </mxCell>
                <mxCell id="90" value="&lt;p style=&quot;margin: 4px 0px 0px; text-align: center; font-size: 15px;&quot;&gt;&lt;b style=&quot;font-size: 15px;&quot;&gt;Q4 - JS Object: ObjectLoaderJSON&lt;/b&gt;&lt;/p&gt;&lt;hr style=&quot;font-size: 15px;&quot;&gt;&lt;p style=&quot;margin: 0px 0px 0px 4px; font-size: 15px;&quot;&gt;+ field: Type&lt;span style=&quot;background-color: initial; font-size: 15px;&quot;&gt;iterable&lt;/span&gt;&lt;/p&gt;&lt;hr style=&quot;font-size: 15px;&quot;&gt;&lt;p style=&quot;margin: 0px 0px 0px 4px; font-size: 15px;&quot;&gt;+ method(): Type&lt;br style=&quot;font-size: 15px;&quot;&gt;&lt;/p&gt;&lt;p style=&quot;margin: 0px 0px 0px 4px; font-size: 15px;&quot;&gt;+ makePath(): String&lt;br style=&quot;font-size: 15px;&quot;&gt;&lt;/p&gt;&lt;p style=&quot;margin: 0px 0px 0px 4px; font-size: 15px;&quot;&gt;+ load(): Iterable&lt;br style=&quot;font-size: 15px;&quot;&gt;&lt;/p&gt;&lt;p style=&quot;margin: 0px 0px 0px 4px; font-size: 15px;&quot;&gt;&lt;br style=&quot;font-size: 15px;&quot;&gt;&lt;/p&gt;&lt;p style=&quot;margin: 0px 0px 0px 4px; font-size: 15px;&quot;&gt;Description:&lt;/p&gt;&lt;p style=&quot;margin: 0px 0px 0px 4px; font-size: 15px;&quot;&gt;Functionality to load JS data objects into memory or cached memory from either a server response or URL - JSON file (REST API).&lt;/p&gt;&lt;p style=&quot;margin: 0px 0px 0px 4px; font-size: 15px;&quot;&gt;Parameters:&lt;/p&gt;&lt;p style=&quot;margin: 0px 0px 0px 4px; font-size: 15px;&quot;&gt;A JSON object from AJAX respons.&lt;br style=&quot;font-size: 15px;&quot;&gt;URL String value.&lt;/p&gt;" style="verticalAlign=top;align=left;overflow=fill;fontSize=15;fontFamily=Helvetica;html=1;whiteSpace=wrap;" vertex="1" parent="1">
                    <mxGeometry x="-30" y="2820" width="245" height="450" as="geometry"/>
                </mxCell>
                <mxCell id="91" value="&lt;p style=&quot;margin: 4px 0px 0px; text-align: center; font-size: 15px;&quot;&gt;&lt;b style=&quot;font-size: 15px;&quot;&gt;JS Object: FormParser&lt;/b&gt;&lt;/p&gt;&lt;hr style=&quot;font-size: 15px;&quot;&gt;&lt;p style=&quot;margin: 0px 0px 0px 4px; font-size: 15px;&quot;&gt;+ field: Type&lt;/p&gt;&lt;hr style=&quot;font-size: 15px;&quot;&gt;&lt;p style=&quot;margin: 0px 0px 0px 4px; font-size: 15px;&quot;&gt;+ method(): Type&lt;/p&gt;&lt;p style=&quot;margin: 0px 0px 0px 4px; font-size: 15px;&quot;&gt;+ formEventListener(): Bool&lt;br style=&quot;font-size: 15px;&quot;&gt;&lt;/p&gt;&lt;p style=&quot;margin: 0px 0px 0px 4px; font-size: 15px;&quot;&gt;&lt;br style=&quot;font-size: 15px;&quot;&gt;&lt;/p&gt;&lt;p style=&quot;margin: 0px 0px 0px 4px; font-size: 15px;&quot;&gt;Description:&lt;/p&gt;&lt;p style=&quot;margin: 0px 0px 0px 4px; font-size: 15px;&quot;&gt;Parses a form into a iterable object.&amp;nbsp;&lt;/p&gt;&lt;p style=&quot;margin: 0px 0px 0px 4px; font-size: 15px;&quot;&gt;Returns the object to calling Controller to apply further logic.&lt;/p&gt;&lt;p style=&quot;margin: 0px 0px 0px 4px; font-size: 15px;&quot;&gt;Parameters:&lt;/p&gt;&lt;p style=&quot;margin: 0px 0px 0px 4px; font-size: 15px;&quot;&gt;Form object.&lt;/p&gt;&lt;p style=&quot;margin: 0px 0px 0px 4px; font-size: 15px;&quot;&gt;Form ID String value&lt;/p&gt;" style="verticalAlign=top;align=left;overflow=fill;fontSize=15;fontFamily=Helvetica;html=1;whiteSpace=wrap;" vertex="1" parent="1">
                    <mxGeometry x="-300" y="2820" width="245" height="450" as="geometry"/>
                </mxCell>
                <mxCell id="92" value="&lt;p style=&quot;margin: 4px 0px 0px; text-align: center; font-size: 15px;&quot;&gt;&lt;b style=&quot;font-size: 15px;&quot;&gt;JS Object: Router&lt;/b&gt;&lt;/p&gt;&lt;hr style=&quot;font-size: 15px;&quot;&gt;&lt;p style=&quot;margin: 0px 0px 0px 4px; font-size: 15px;&quot;&gt;+ field: Type&lt;/p&gt;&lt;p style=&quot;margin: 0px 0px 0px 4px; font-size: 15px;&quot;&gt;+ requestPath: String (O)&lt;br style=&quot;font-size: 15px;&quot;&gt;&lt;/p&gt;&lt;p style=&quot;margin: 0px 0px 0px 4px; font-size: 15px;&quot;&gt;+ requestBody: Object&lt;br style=&quot;font-size: 15px;&quot;&gt;&lt;/p&gt;&lt;span style=&quot;color: rgba(0, 0, 0, 0); font-family: monospace; font-size: 15px;&quot;&gt;570%22%20y%3D%222318%22%20width%3D%22245%22%20height%3D%22260%22%20as%3D%22geometry%22%2F%3E%3C%2FmxCell%3E%3C%2Froot%3E%3C%2FmxGraphModel%3E&lt;/span&gt;&lt;hr style=&quot;font-size: 15px;&quot;&gt;&lt;p style=&quot;margin: 0px 0px 0px 4px; font-size: 15px;&quot;&gt;+ method(): Type&lt;/p&gt;&lt;p style=&quot;margin: 0px 0px 0px 4px; font-size: 15px;&quot;&gt;+ initialize(appType): Result&lt;br style=&quot;font-size: 15px;&quot;&gt;&lt;/p&gt;&lt;p style=&quot;margin: 0px 0px 0px 4px; font-size: 15px;&quot;&gt;+ register(): Result&lt;/p&gt;&lt;p style=&quot;margin: 0px 0px 0px 4px; font-size: 15px;&quot;&gt;&lt;br style=&quot;font-size: 15px;&quot;&gt;&lt;/p&gt;&lt;p style=&quot;margin: 0px 0px 0px 4px; font-size: 15px;&quot;&gt;Description:&lt;/p&gt;&lt;p style=&quot;margin: 0px 0px 0px 4px; font-size: 15px;&quot;&gt;Provides the functionality to map out&amp;nbsp; JS calls, form IDs, page IDs into relevant JS Conbtrollers to be able to introduce shared functionality dynamically between pages without having larges JS list of files to laod.&lt;/p&gt;&lt;p style=&quot;margin: 0px 0px 0px 4px; font-size: 15px;&quot;&gt;Called dynamically from either the Init / EventListener objects.&lt;/p&gt;" style="verticalAlign=top;align=left;overflow=fill;fontSize=15;fontFamily=Helvetica;html=1;whiteSpace=wrap;" vertex="1" parent="1">
                    <mxGeometry x="-570" y="2820" width="245" height="450" as="geometry"/>
                </mxCell>
                <mxCell id="93" value="&lt;p style=&quot;margin: 4px 0px 0px; text-align: center; font-size: 15px;&quot;&gt;&lt;b style=&quot;font-size: 15px;&quot;&gt;JS Object: HandlerAJAX&lt;/b&gt;&lt;/p&gt;&lt;hr style=&quot;font-size: 15px;&quot;&gt;&lt;p style=&quot;margin: 0px 0px 0px 4px; font-size: 15px;&quot;&gt;+ field: Type&lt;/p&gt;&lt;p style=&quot;margin: 0px 0px 0px 4px; font-size: 15px;&quot;&gt;+ requestPath: String (O)&lt;br style=&quot;font-size: 15px;&quot;&gt;&lt;/p&gt;&lt;p style=&quot;margin: 0px 0px 0px 4px; font-size: 15px;&quot;&gt;+ requestBody: Object&lt;/p&gt;&lt;span style=&quot;color: rgba(0, 0, 0, 0); font-family: monospace; font-size: 15px;&quot;&gt;70%22%20y%3D%222318%22%20width%3D%22245%22%20height%3D%22260%22%20as%3D%22geometry%22%2F%3E%3C%2FmxCell%3E%3C%2Froot%3E%3C%2FmxGraphModel%3E&lt;/span&gt;&lt;hr style=&quot;font-size: 15px;&quot;&gt;&lt;p style=&quot;margin: 0px 0px 0px 4px; font-size: 15px;&quot;&gt;+ method(): Type&lt;/p&gt;&lt;p style=&quot;margin: 0px 0px 0px 4px; font-size: 15px;&quot;&gt;+ AJAX(appType): Result&lt;/p&gt;&lt;p style=&quot;margin: 0px 0px 0px 4px; font-size: 15px;&quot;&gt;&lt;br style=&quot;font-size: 15px;&quot;&gt;&lt;/p&gt;&lt;p style=&quot;margin: 0px 0px 0px 4px; font-size: 15px;&quot;&gt;Description:&lt;/p&gt;&lt;p style=&quot;margin: 0px 0px 0px 4px; font-size: 15px;&quot;&gt;Handles all AJAX requests and responses from a server or URL.&lt;/p&gt;" style="verticalAlign=top;align=left;overflow=fill;fontSize=15;fontFamily=Helvetica;html=1;whiteSpace=wrap;" vertex="1" parent="1">
                    <mxGeometry x="-570" y="3320" width="245" height="440" as="geometry"/>
                </mxCell>
                <mxCell id="94" value="&lt;h1 style=&quot;&quot;&gt;&lt;font style=&quot;&quot;&gt;&lt;span style=&quot;font-size: 15px;&quot;&gt;QUESTION 4 - Solution Requirements&lt;br&gt;&lt;/span&gt;&lt;/font&gt;&lt;font style=&quot;font-size: 15px;&quot;&gt;Javascript front end functionality:&lt;/font&gt;&lt;/h1&gt;&lt;h1 style=&quot;&quot;&gt;&lt;ol style=&quot;font-size: 15px;&quot;&gt;&lt;li&gt;&lt;font style=&quot;font-size: 15px; font-weight: normal;&quot;&gt;Form structure - 1 text input &amp;amp; 1 dropdown with age ranges.&lt;br&gt;Better to reduce user input to structered input to reduce parsing complexity &amp;amp; user typo errors &amp;amp; user attacks.&lt;/font&gt;&lt;/li&gt;&lt;li&gt;&lt;font style=&quot;font-size: 15px; font-weight: normal;&quot;&gt;Validation &amp;amp; Sanitation logic will be applied upon user input.&lt;/font&gt;&lt;/li&gt;&lt;li style=&quot;font-size: 15px;&quot;&gt;In Initiation we load the data.js key value pair object into browser storage if under a certain size. Browser localStorage is still available and quicker then loading it into dynamic memory each time the form is searched. localStorage serves as a memory cache. Will test load times to determine perform ance advantage.&lt;/li&gt;&lt;li style=&quot;font-size: 15px;&quot;&gt;Result approach:&lt;br&gt;Tabulated result as requested.&lt;br&gt;Paginate filtered results.&lt;br&gt;&lt;/li&gt;&lt;/ol&gt;&lt;/h1&gt;" style="text;html=1;strokeColor=default;fillColor=none;spacing=5;spacingTop=-20;whiteSpace=wrap;overflow=hidden;rounded=1;fontSize=15;fontStyle=1" vertex="1" parent="1">
                    <mxGeometry x="1490" y="730" width="480" height="370" as="geometry"/>
                </mxCell>
                <mxCell id="97" value="&lt;p style=&quot;margin: 4px 0px 0px; text-align: center; font-size: 15px;&quot;&gt;&lt;b style=&quot;font-size: 15px;&quot;&gt;Q1 - JS Object: ListParser&lt;/b&gt;&lt;/p&gt;&lt;hr style=&quot;font-size: 15px;&quot;&gt;&lt;p style=&quot;margin: 0px 0px 0px 4px; font-size: 15px;&quot;&gt;+ field: Type&lt;/p&gt;&lt;p style=&quot;margin: 0px 0px 0px 4px; font-size: 15px;&quot;&gt;+ parseList: String&amp;nbsp;&lt;br style=&quot;font-size: 15px;&quot;&gt;&lt;/p&gt;&lt;p style=&quot;margin: 0px 0px 0px 4px; font-size: 15px;&quot;&gt;+ requestBody: Object&lt;br&gt;&lt;/p&gt;&lt;span style=&quot;color: rgba(0, 0, 0, 0); font-family: monospace; font-size: 15px;&quot;&gt;570%22%20y%3D%222318%22%20width%3D%22245%22%20height%3D%22260%22%20as%3D%22geometry%22%2F%3E%3C%2FmxCell%3E%3C%2Froot%3E%3C%2FmxGraphModel%3E&lt;/span&gt;&lt;hr style=&quot;font-size: 15px;&quot;&gt;&lt;p style=&quot;margin: 0px 0px 0px 4px; font-size: 15px;&quot;&gt;+ method(): Type&lt;/p&gt;&lt;p style=&quot;margin: 0px 0px 0px 4px; font-size: 15px;&quot;&gt;+ parseList(String string): Iterable&lt;/p&gt;&lt;p style=&quot;margin: 0px 0px 0px 4px; font-size: 15px;&quot;&gt;&lt;br style=&quot;font-size: 15px;&quot;&gt;&lt;/p&gt;&lt;p style=&quot;margin: 0px 0px 0px 4px; font-size: 15px;&quot;&gt;Description:&lt;/p&gt;&lt;p style=&quot;margin: 0px 0px 0px 4px; font-size: 15px;&quot;&gt;Receieves a comma seperated list of values.&lt;/p&gt;&lt;p style=&quot;margin: 0px 0px 0px 4px; font-size: 15px;&quot;&gt;Parses each value into an array.&lt;/p&gt;&lt;p style=&quot;margin: 0px 0px 0px 4px; font-size: 15px;&quot;&gt;Sanitizes and validates using JS object for each.&lt;/p&gt;" style="verticalAlign=top;align=left;overflow=fill;fontSize=15;fontFamily=Helvetica;html=1;whiteSpace=wrap;" vertex="1" parent="1">
                    <mxGeometry x="-300" y="3320" width="245" height="440" as="geometry"/>
                </mxCell>
            </root>
        </mxGraphModel>
    </diagram>
</mxfile>